<svg width="43" height="43" viewBox="0 0 43 43" fill="none" xmlns="http://www.w3.org/2000/svg">
<g clip-path="url(#clip0_10_99)">
<path d="M21.5 0C15.6592 0 14.93 0.026875 12.6366 0.129C10.3469 0.2365 8.78812 0.596625 7.4175 1.12875C6.00387 1.677 4.80346 2.41337 3.60842 3.60842C2.41337 4.80346 1.67521 6.00208 1.12875 7.4175C0.596625 8.78812 0.234708 10.3469 0.129 12.6366C0.0215 14.93 0 15.6592 0 21.5C0 27.3408 0.026875 28.07 0.129 30.3634C0.2365 32.6513 0.596625 34.2119 1.12875 35.5825C1.677 36.9943 2.41337 38.1965 3.60842 39.3916C4.80346 40.5848 6.00208 41.3248 7.4175 41.8713C8.78992 42.4016 10.3487 42.7653 12.6366 42.871C14.93 42.9785 15.6592 43 21.5 43C27.3408 43 28.07 42.9731 30.3634 42.871C32.6513 42.7635 34.2119 42.4016 35.5825 41.8713C36.9943 41.323 38.1965 40.5848 39.3916 39.3916C40.5848 38.1965 41.3248 36.9997 41.8713 35.5825C42.4016 34.2119 42.7653 32.6513 42.871 30.3634C42.9785 28.07 43 27.3408 43 21.5C43 15.6592 42.9731 14.93 42.871 12.6366C42.7635 10.3487 42.4016 8.78633 41.8713 7.4175C41.323 6.00387 40.5848 4.80346 39.3916 3.60842C38.1965 2.41337 36.9997 1.67521 35.5825 1.12875C34.2119 0.596625 32.6513 0.234708 30.3634 0.129C28.07 0.0215 27.3408 0 21.5 0ZM21.5 3.87C27.2387 3.87 27.9231 3.89867 30.1896 3.99721C32.2858 4.09575 33.4235 4.44333 34.1796 4.74075C35.1865 5.12954 35.8996 5.59538 36.6557 6.34608C37.4064 7.09858 37.8722 7.81346 38.261 8.82037C38.5549 9.57646 38.906 10.7142 39.001 12.8104C39.1031 15.0787 39.1264 15.7595 39.1264 21.5C39.1264 27.2405 39.0995 27.9231 38.9938 30.1896C38.8845 32.2858 38.5352 33.4235 38.2395 34.1796C37.8382 35.1865 37.3813 35.8996 36.6288 36.6557C35.8781 37.4064 35.1525 37.8722 34.1563 38.261C33.4038 38.5549 32.2482 38.906 30.152 39.001C27.8694 39.1031 27.1975 39.1264 21.4463 39.1264C15.6932 39.1264 15.0213 39.0995 12.7405 38.9938C10.6425 38.8845 9.48687 38.5352 8.73438 38.2395C7.71492 37.8382 7.01437 37.3813 6.26367 36.6288C5.50938 35.8781 5.02742 35.1525 4.65117 34.1563C4.35554 33.4038 4.00796 32.2482 3.89867 30.152C3.81804 27.8945 3.78937 27.1975 3.78937 21.4731C3.78937 15.747 3.81804 15.0482 3.89867 12.7638C4.00796 10.6676 4.35554 9.51375 4.65117 8.76125C5.02742 7.74 5.50938 7.04125 6.26367 6.28696C7.01437 5.53625 7.71492 5.0525 8.73438 4.67804C9.48687 4.38063 10.6174 4.03125 12.7137 3.92375C14.998 3.84313 15.6699 3.81625 21.4194 3.81625L21.5 3.87ZM21.5 10.4597C15.3994 10.4597 10.4597 15.4047 10.4597 21.5C10.4597 27.6006 15.4047 32.5402 21.5 32.5402C27.6006 32.5402 32.5402 27.5952 32.5402 21.5C32.5402 15.3994 27.5952 10.4597 21.5 10.4597ZM21.5 28.6667C17.5404 28.6667 14.3333 25.4596 14.3333 21.5C14.3333 17.5404 17.5404 14.3333 21.5 14.3333C25.4596 14.3333 28.6667 17.5404 28.6667 21.5C28.6667 25.4596 25.4596 28.6667 21.5 28.6667ZM35.5574 10.0244C35.5574 11.4487 34.4 12.6044 32.9774 12.6044C31.553 12.6044 30.3974 11.447 30.3974 10.0244C30.3974 8.60179 31.5548 7.44617 32.9774 7.44617C34.3982 7.44438 35.5574 8.60179 35.5574 10.0244Z" fill="#FEFEFE"/>
</g>
<defs>
<clipPath id="clip0_10_99">
<rect width="43" height="43" fill="white"/>
</clipPath>
</defs>
</svg>
