<svg width="43" height="42" viewBox="0 0 43 42" fill="none" xmlns="http://www.w3.org/2000/svg">
<path d="M42.9158 7.86041C41.3059 8.54085 39.6005 8.99 37.8543 9.19341C39.6928 8.1326 41.0693 6.46901 41.7297 4.50985C40.0258 5.46445 38.1374 6.15933 36.1272 6.54633C34.8009 5.18483 33.0435 4.28182 31.1278 3.97751C29.2121 3.67321 27.2453 3.98465 25.5329 4.86347C23.8205 5.74228 22.4583 7.1393 21.6578 8.83758C20.8572 10.5359 20.6632 12.4404 21.1058 14.2554C13.7779 13.9234 7.28671 10.5436 2.93833 5.43865C2.14784 6.72833 1.73552 8.1993 1.74508 9.69565C1.74508 12.6369 3.30383 15.222 5.66525 16.7408C4.2657 16.698 2.89707 16.3347 1.67342 15.6812V15.7844C1.67262 17.739 2.37623 19.6337 3.66487 21.147C4.9535 22.6603 6.7478 23.699 8.74333 24.0869C7.45029 24.4195 6.09599 24.4695 4.78017 24.2331C5.34655 25.9153 6.44581 27.3857 7.92457 28.4393C9.40332 29.4929 11.1878 30.0771 13.029 30.1103C9.91065 32.4598 6.06027 33.7349 2.09625 33.7309C1.3975 33.7309 0.700542 33.6914 0 33.6157C4.04148 36.0999 8.74067 37.4186 13.5396 37.4152C29.7596 37.4152 38.6194 24.522 38.6194 13.361C38.6194 12.9998 38.6194 12.6386 38.5925 12.2774C40.3232 11.0817 41.8161 9.5973 43 7.89481L42.9158 7.86041Z" fill="#FEFEFE"/>
</svg>
